# xmcd
#
# Track frame offsets:
# 150
# 13563
# 25812
# 39003
# 52797
# 66578
# 78504
# 92494
# 106484
# 118968
# 131608
# 145828
# 157767
# 172273
# 186460
# 199795
# 213567
#
# Disc length: 3007 seconds
#
#
# Revision: 0
# Processed by: cddbd v1.5.1PL2 Copyright (c) Steve Scherf et al.
# Submitted via: FreeRIP 2.944 
#
DISCID=eb0bbd11
DTITLE=Kokomo Arnold - Shake That Thing
DYEAR=1937
DGENRE=blues
TTITLE0=Try Some of That
TTITLE1=Mister Charlie
TTITLE2=Cutter Blues
TTITLE3=Money Tree Man
TTITLE4=Delmar avenue
TTITLE5=Shake That Thing
TTITLE6=Backfence Picket Blues
TTITLE7=Fool Man Blues
TTITLE8=Long and Tall
TTITLE9=Sally Dog
TTITLE10=Cold Winter Blues
TTITLE11=Sister Jane Cross the Hall
TTITLE12=Wild Water Blues
TTITLE13=Laugh and Grin Blues
TTITLE14=Mean Old Twister
TTITLE15=Red Beans and Rice
TTITLE16=Set Down Gal
EXTD=disc 1 the story of the blues
EXTT0=
EXTT1=
EXTT2=
EXTT3=
EXTT4=
EXTT5=
EXTT6=
EXTT7=
EXTT8=
EXTT9=
EXTT10=
EXTT11=
EXTT12=
EXTT13=
EXTT14=
EXTT15=
EXTT16=
PLAYORDER=
